<mxfile host="65bd71144e">
    <diagram id="HIP3nbAZw_EuaXWnEj3U" name="Page-1">
        <mxGraphModel dx="1086" dy="743" grid="1" gridSize="8" guides="1" tooltips="1" connect="1" arrows="1" fold="1" page="1" pageScale="1" pageWidth="850" pageHeight="1100" background="#FF33FF" math="0" shadow="0">
            <root>
                <mxCell id="0"/>
                <mxCell id="1" parent="0"/>
                <mxCell id="7" value="http://ics2o.mths.ca" style="swimlane;whiteSpace=wrap;html=1;fillColor=#0050ef;fontColor=#ffffff;strokeColor=#FFFFFF;" parent="1" vertex="1">
                    <mxGeometry x="40" y="40" width="760" height="720" as="geometry"/>
                </mxCell>
                <mxCell id="8" value="&lt;font color=&quot;#000000&quot;&gt;http://ics2o.mths.ca&lt;/font&gt;" style="swimlane;whiteSpace=wrap;html=1;fillColor=#FFFFFF;" parent="7" vertex="1">
                    <mxGeometry width="760" height="720" as="geometry"/>
                </mxCell>
                <mxCell id="15" value="" style="shape=image;verticalLabelPosition=bottom;labelBackgroundColor=default;verticalAlign=top;aspect=fixed;imageAspect=0;image=data:image/png,iVBORw0KGgoAAAANSUhEUgAAAOEAAADhCAYAAAA+s9J6AAAysElEQVR4Xu19C5RV1Xk/IwwzDO8ZngMygKA2AlEUjdGIIixDCrYmJjYJNhZrE2midlXb1bTRpP2bxGpaIyzyQI2J0FSMsVY0NlGjxFQMCVKppioVBnnIQ0Aww/Ca6e933Hv+e849d845e+/zunfftWZdmDlnP377+/b37e+1e/VyH4eAQ8Ah4BBwCDgEHAKFRODtt98+oZADd4N2CFQrAnv37u3jGDd/q1+TvyG5EUkEdu7cOXjPnj2N+Bm2e8+eEYfb2+vb2toa+Pd2/Btf3vrh3/34PWTIkH38HtrYuLe+rq59+PDhuwYMGPDusGHD9o0cOdL7W9Bn3759fTo7O09obGw84tBPHwHHhOlj3uvQoUO9Dxw4MABMNgIM0LR169YT165de05ra+v4hx9++KOSuRIYWifb/NAFFzwz5bTTXjn//POfHTFixFuDBg3aP3bs2G1jxozZm0CfrskQBBwTJkwi7777bt8jR47Ub9iw4ZSXXnrpjPXr15+5ffv25n379w9d8/zz55XrvqamphekUy9+8yP/bfq7cv1Nnz59bUtLSyt+Np900kkbZ82a9dTEiRO3ov9j9fX1xxKGqaqbd0yYwPJv2rRp1G/WrTtj0xtvTPrhD3945bp1684S3QTiLRktgaGENkmm7uHTCeb89cKFC5eNGj16x5nTp784YcKEbaGNugdiIeCYMBZcwQ/D2DFo48aN45988slLHl216tI3wHy7du4cqaqVqmQzlWa2pWO59vwMivPlwTPAlFBlN1x11VV3jx8/fgvOmu9YgLCqm3BMqLn8ONfVP/roo5e8uH799P944om5Qtp1wzNLCac5rbKvBUjMztPAjBfgfHnx7NlPXv6xjz1qu0/XnkOgBIFt27Y1rVq1atbsOXMexx87xA/1uU4wXNX9cN7ix8OCuDz77LNnAachjnwcAtYQOHz4cJ+XX3554g033PCPOB/9KojxJBOqzFiNv5MMCZxeAF63vfDCC1PgPuljbTFcQ9WFAM55jStWrPjYB8499xcq41Wr1Isq6RXpSCnZAfxWL1u2bAGMVWOqi4LcbLURgNQ76W+++MUvjxg5crtKUJIIq1HCce66Ul5iiDaOE1fgO0l7cdyLlYcApJ0XacIPme/aa6+900k9+2dbv3QEzt90zFh5/KQ1I573aEiA6X2/ynxRVS/3XHyGVRiyA5E7TyGA4VStxXMvFRsBMF8NFn/SFVdc8QM/8+mqXSYqW7W+KxiyY8GCBfdCMp5cbKpyow9FAOFjtXwIFrupfrXTSbT4Es0WZqpkxLrc5ZgxlJSL9wCYz3OgwzrXDMPALeXOfFICOkmob4QxkegqM9KAg/UaWzxqcyMuQYDB0/wlXA0fbRk/fqNqILC1kyfZjs+gIR3jWt9JjtNW2+p8sV7/i3X7eDWQdUWGrSE9qN/QoUMPwegyY9GiRXdDxZmKxQSt5Ge6PQROl0RUgyA3TZ48+dXaPn2ONTc3b1UIs2bgwIEH+jU0tPWtrT2ClKgW/g2bz4DtO3aM3rJly/jWzZsnlCHkXIfYCXy80LilS5deM3PmTAZKVOQnP1RpEV7k6Q2/85vf/POvffWrN0vmy0vQtDJNj9mYdItA6E1IxH27Zdy4LSC2p6ZNm7Yevz/Q0NDQjkeO9+3b9wjSiQ5jE+lA4u3RMKiogiN9qi/jW/nN55EMXA8Vb9KOHTvGrFmz5rxWMOjrr79+8tt79gwn06qMzX+nFSTOvsLStPjILbfc8qXrrrvuW01NTRWX81gxTAhC6g3CPf6zn/3svE8vWPAgshhGq8QURri2/+6TdF3SjUx35ZVXfg8JtauRULuLkg27/Sbb/UdtD1pCC/Ibx+zatWvUa6+9dsp3ly1btAP/9zNlDrDsRADFjhXLl18xZ86c56LOzz2XEgLY8U+g9GN8J7pkMHFXMLX8d5q/Y19iHB1z5879d46LIXAIbB6GzSLXsZSM9WRqFjczjpvjl3PxY5kmptLow7FgXLcDR6/Mh/tkjACIxVOjsJtPHt3c/KYg/tSzGVSmI5Ew3nTlypXz4Issdx6zghwKNyWuybAUB9w60zCfS5U4Wm+jU5nQlnEmrB2JNWNSue5WgHSN6CPQ0dFRc+utt/6VX/qFLaSNv0silFKCvkdKOxiFBurPKN6bkP4NYPTxVMXjvan/NJiyL63NV1999bdUCZk2Q8q+ERx+JYIvUpu/PnIV+CYIrz8iLb6n7siSEFSCSOJ3kgBwlvsvSggYPLzzZ5of9Dkc+Xs/4fwuu+yyB/H/EWn2z75YxuNHDz00b8qUKetVhkwr2F1KRdDBPaSHtOdf1f1h9z+FDKAyoA3pVq4Nv9SD9P1L5spluQhgvAeUcXUy2iTt8UDqe+owY3CpstLJnrZ0lIzI4wjOsR9MG4Oq6g8LXkf1E+rHZ8RCe2e/FKSeZ2RhQi/z4uQ5NGvwEfz8tCrlRcJx1sPqhXUaRBVRbJIlZ0d1zLYlJtcJlQ8uzhyEShwAGZDzgq/o77KQfixpgfPXoDxhm1cmlBixxAVwu1BumOpmmZTWIqWisBPkabmKPxYwQJMwlSdqkVPVTvaH8878vKKXdyZUcQOOHwGejyj4JmbBloxIdd25MSxRL3bUUQB0pV8CJqHWsE2qUSQamXVhaRrWm/EzIUz2uXZg04K7ePHiq9UYXtvqqNoeJTBTpEA/zdbBr6YGASCtjt2c77ZVGblzsh+cZT7NuNMiYOxnQlgoaajK/Yf43n777X+ehpoq+uhwjKhJFrC2vZ9hSqoEVM8VtiQhF4opTlB5GzWHmslrfibE/3+eyUA0OwVjNMKi+0/qJpvQ+jLcbTutt5pDrc7XmNjJAGZ1UWxKQCn90Mc7VD2LiLKfCaFGv1TEecCtcC7Gvl7dbG2utbSgc61dwnBECsGOdXpSKqhcaLYPlei6iEPK5WN+JoTj/olcDlQMCiF2PV5oCovmXySposqNF+ltZ+YZp8zHRgaUEjAh1cSL65SqCc4nveH3Cwx5KpphBgaPNzJfwIAByPhWWeGgpzFiXU7F+jyblIpKmqJEZHGvPGKV+ZhEMK51I4wq/bDb3hQ2UYaDMQyKhCDKYYS9ksnfA86Ez2QykAidItb0Mm5+KKy1HJteaPYDsiS+lpRUlBLRqaa+haMRxi8BbUhCyYB0O+DscX5P9ALi4M23vVR3CAmBsaER6Cz1R4rChELqdEXORA2vw3qdoxZgVqOjTGlDSkTSXeoLl8cO6QeUYCdwIPdqWzLXMGzukglF+FdXSJxIkQp7PfW/B/gJ/zP1QUToUG5qkolEOFuEN70A8ZGY55PcDBOgDc9qWvXuCwDAyP+kVFAaX66PtNp4CEzohcYtWbLkT/07LdTSr0RtJ63n6IiWkp7fUOG+kVbfUfsRlucuBuI44Yv946jvy+eEES0JOvFuk6IgiDumwj9PgwilUxKRMIIwO5jzxiK/UcECE/bBuGp5ZpFSRhI5/ZW8mSlqW2k8h/GcSCnPsXG8WaQy9TRP4NifibfqRsH/6+ZbYj0vT8JoRybkhlZVIW5YBK+8g4wFtalmSAbUtX6BcLyiSHj/bL80hFFhRRrMFbcPbGbemPP2gfT6PAlcCSXrELhqD1VYtRORiCI1THtshXqR6Uj+bAg/weukKLENXlJpKrHk2VAmzKq1TUBEHygU2BkNlmc5MqBcV7k2NoaD9Z1ADUAyuNqHSSwq2yu67zgyviIf0Fo2hFR3aAJnIaXIAynzoHQqC8tZN0KC9F6F8g5eOX33KUUAG9gJPALw1iWVOUjgNsPGuM7qha02tClBR8xHnFXRaytu4LGmTkgGpP/JJnNItRQS+299UppnzaqoCq1LiNIYozKhwFG3ybLvcd1ViWvKjJIRKzZDnzVAZEkKE7XBl67SiYJD3wEDepZN2x+W/lNjWLlILM/O7HHbfRW9PRrbOAe/i4dMgnPr0CTmx2sOlIJT1spcwi21paJq1tD0z3OgLMpkulspZzSPAZNYXLVNIfm63f/gMreDURdYdTnmyYA4Z30h6TWSEU6q1mJCZxw3LaZQrSvn6CHCxboI2UQSShU0DQaUxON3jHOR8uYSSJrQw9oX4WjdztCswgYJGRqmFtZ2lL8HXXenMqWqHofRn1RLdXyaUcaa+jO8hppEa3GXYom/lUmpoEEABRhpGM52Wepg5rhDmf2iEnia5UEgtU7AGfF+m3RGui10jCmj5lkbhvq1TWDo8AUDpl5KHsaFL0opLCShsSU2xzwVe2iwKvNc3qWK0g+cRcl/9UxqopKKYw+zblYX+nzIOwP8aoCJikA/IMzTTbEpxMILWIgTWGEbdVI+m9UYLEwj0SZ4FR1Vd95hkVV1OqzNcDXiKUz1DPNJc2MRdJwodok0zgtFbKmhUkc3dcQnMlHXaO4QEHRi5QgkaQ/0/KHcTbTcgHAQr2e9Fn9mhF8iRk1NkSBwly0MCG6gmSMQFGwRJvV6oknQ8zYYn4pTh0gkw1qpLUlpSjUw81V1AygcAoJurKRBkQ6TCjqwCixLQqhJnCYHYyEBO+FnuiFONoTVCbnGCo+ArTQoRSM7J/egyMpZJqJfMqA4YOd+zm6A+UZABHxb8VPHSUrOBBXm8FFsm0hANQM7SkZ8JhN1nRYKAWZ12KreII5Hl+cOAJrveUefv8S5NMZENcKoIWmFskblbkXcgPwIsL4pGUiXJlXaJJ2D3sfkDmUbxhiphrrYzNwtb0UMCP6+2ySNmWhrZGZxF2N+cIE5+DT/LqMzSQLEvEAGfOdndm4klYSALLmhQ5++DB6GtDEkMx8fETzblagrRX4c0S92KCZ/Ts3HrNwoKhEBccNyt8tL49CpqpaK5OXsYUKirpUAbQKRRtpL9oi5EWSNAI47N6qMpyMVpdCANJyU2XxEKYPeiFz/gV/P1pGELE+e2WRcx1WHgJpgHlcSqtJQlJ7MDj8RSmYUoyd3FKS9zOVMwNzuPJjdklZNz6KEhRXahTZ4SmbACellFJ5GJoSl6ebMJuE6rloEcKb7ZxtqqQgGSB9HoQt3y6TWSRvByANrkPC2JASDO6mY/tJWTY9IexpM+tNVRxW1lJbSdItD04UgLvbQloLyHMkrqsutOhix6+pqnkGrhjrcRBNDwH8Vnri626gEJ2k5dUupWrJCxwijhKYF1iDBDjVElHjfzm/Tys2JrahrONcI4Kw2iZW1WSFPZuL4Lyvl1Qcy0ituZJdqoKFEZWHi1AARF6RoS0E5eGmM8Q9cjXyXEpOS18WSprbEhe8ogIbog35f0MRQLeFqMpGOq0I9gqV2nyXE+WDTYFgyFmqQPMK6kUGgyPKIqpQVzNgBH89fghmHFJ5K3ASsISAt6qxpgwJc88U5r5u9gvQDZuONW4Ef0OO/SXrTYUbx7nHElCZ/w5PMlPCroeoEwlRU/h1ScF45QFgaQ70g0s+MLOYDsP/A2iq6hgqPAPNY5SVDAZu3d0021NOy6qLQykqivqKqqFJICP5IDk8k1/Y2jb2Tgw0bJYspIZP5b8Su1u3gLNsA6I9m6qMJm4T7e2IIyLMd6KRRGEVKQtEknbBSHs5rLREGY+w3JH+0t7cnZ0QUB09tk64ApROXblwUARDvEcaS+tVT/4EY0fF3QCVJpNR61HG659JFAEzYn1XdeD+jpCtfgDXr0z4YJxYZlvoFsq04mp0/sFvEpyYDiGm6EicGVfIFnOkGxB0hGHe2kIolmwDb5bXWkIonx23XPV8cBOTZj1fUybAzP7NI6ScYKtbkQJcD/felxD0fsn+RMhWr70gPU+yTgdRJ6wxQXB4Zqc+gh2TxHsGQ3XR47nx8x+8L0u7MvZhLBNRLevxaEVVPuB1ib/JyomDeK01pnCopGJqBAHY/4t62bnp31EOrGllgY3C0QIndptvlI+L6bTKhp5Pju3Iu9LC7nIVtjQEcUgVV6YpHFpHRYzQ3wcCmRy7eSmy/RCerX5vuEHQvGCHkexmgTxTXHHvlyqV5GOeFPvKOQb5C9YV3R8ACdqkz5NhcgWzawrHoH4Qm1EFLue1gDlM/OPlE8Is9gHD3Q71U/3SqqHFQfD+pAyujHuRsqYqCCT3/IyN7RMU2VYIf521BdHFgXt6deu5TPARY3BfMd24Sa2ijcLDgF3vACp+cdkQBmTCtUnFgwBowpXdhjN/XKDYDWfqug+prHOuZPURdS3lGgHVuuVEban4d0Lx+39o8RVEb7TA1TiZt5zoc/udzN+rJeCQlNG97zVW9EGsr5xrSRUBe+x3X+Ki6K6wFdUO9GyCvm5I7g7pDhP1OEjrOa826gOi8J0CMFAHBMdLiBsvt9Qh9SuVSS505uXfSQYApdOISWO1aNFL7s2GI9JzlYRIlTNqItKd0EBS9iMlHjoCQmwX9jSL+MNXxus7yhwA0pG+bqqTgn2nGM5NXXcd1R6j+G/j2MqlYjPo3ywVzlYS99WRg4qbDd60AaLwCroGsEADdfpy0EKbtlUtm53sQQIuNx886oIa7QSfE+yDjgWg0wFA2vyodRcdXGNe7INLVQdUAvwJeEVeyGxkkje5TEaXtR5ikLZGYBRNntiS8slv6OONuJlJF5W7ISIosrunODDjXsYeAiRAi/dDWYGQPkRYivzhWibmcqJbSBOerS7NeT+5ootakyUG7g8ycSCRE1gC5/ssiIOhXK1JM8gD4iDmOeh+RnazlmpBShKFEeSnYxB0JZ737KdkkQFHUU3+UPBOSWTpBD1X3VpEQkIbJuFqUSjNLliy5RmvOzFKW5ynNKmrMnn80iYgGrQkpLzFpWIa7GUj5Dpb/R3BAJuddUwzc+9EQ4BHEnywc10hJPkKOoRdAEusDJqyTEiOOtFAZlkaNWJ2m+DA3GaVKQGRXhl8qsogQzoufSXHorquUEWC+qokkJB8JI0+8kYugWC1VVO4UWbkm4swU4NT6MzLibDpS7SbQzqURB/niPAvN6QKubxy6UJ/lu1p1SVEU588EgXUxol9160ks81nkII4oCtTMwIDh5TFV+sedL99lSg3aOrEo83bjDEcArq6Bfq0wLm0IfgrvTH0C0QLfNRHBNM0KlTZexxk/zZhTcRbWVVG9jBEXApfxQlrsHtpSjT+ROI5UJB/FjiNFpyeYHkazCFWziHsvlsfjeU9HG5AqKt9nWY5ypR1tjte1lSwCIomhSyWNKwmFVT76IOHgHmTqpMR58BPRe8znk1Arh0O9vMevikTZBSXz8l1WEXfJxPlc46ijgpuBNUu1bCR8j6l8oKcmptpF6hMEM1mH8NR4Uah1F0bqrAAPMRkZ6vlSiUmcxVCZkQHBOCcPL8CU3RB9CIir1LTurJCaUU91T0sAZzkIhXhiGWb4HvVnWIPIyBX1wUKcK5KTY9cgkXgyS4OHdPiNAquPVxRgFTQZ0POJ6lWAciNWN+Ryv5NrD746MzIkInpcW/QiK/m/IndWsAcR/dNPlNMjI8Yy3qhSkcYfMPXMgk2/qocrbQRRjiP+Z7j2sapzw2/2jTic7ndV4Az080pfLZybh4o6rFqpLlJFYYkNd14sBrWoxc50+COWhRSE8bAqZuNwPt+DMeP7xYDVfJQMaghSUaNgpkpGBJj/NVRURim5T04RMEny5VrLtKaopThjqVm+6IDOagzjYg0doa7EDg5XmRHt/CGY0VWByyEjiludtCJnpObDacVmwigHT786Wq3hW7yyzZ8yFQc/uVD00faEIYPGmVJFAw9U4r/H92dpTMsqeTqH/JLIkOTNTXEDuBWvATfoXli/SEWptbhddpbqjaWJwG3WKOMERbCCkVTkGUKtAkfGU1KxugxDGK38t1eWA8+dYzYD93YQAiw2TayjHDWCnhHr1AvBGz37CrGb9xcPe9ZRjZ28E07JkW4ZvRul3h9QfDgSpqqKSjWINxDJdZFrEvQtpanwSRYmdrcI9GKhAlsHDXqhc6U/RGW8OFwvCUcMNrSvangAqkeDKAJr5NJQmDLUdSSfZdRTkYLo804PjKBSBVQc3hACjdkU40PnKRyKoQtdRtx20jiBhbd/I03oyPP9AC2fonJdbBU17mKrOY9kRFcbxw5tgK4HGfoKA6+CKMn23b1njxdW1dnZ2QuL2fUd5Xd8ZvLkya/W19e32Zl25bQCTA5jNrfjXPEIru/6fw8//PDlwNg7G8TFmc9HXY81zz9/3jXXXPMdGHBa2VUAolSP43yixT5Ga7FmymmnvfyRj3zkp0OHDn0n2ivZPdWvX79D48aNa23dvHmiJn/U7N69u+SIUMKEh9vbefmLRxjqd5TfcWC1ffocxbueFch9ShGYNm3aa/jtJ5BdcfG8efN+JpipG2HrYC978r9LRl++fPmfiL/bZCBryyvCHGfA30pscvtpbGw8CsPXW1F4IWg9yB/thw97/KV+Su7Wbmtr88rA8wX1O+rvmpubt2Gwx/0d8ZbVqP4R9V15O2tuV0ZzYGDAp3BIH4a8wxug4rzxHuTdMZf/j4p90HOCKfH13q7KLz+jZv07WAsHgQH/h+UpNeG08hppDWf4Hu+bx4Zx0GQ99u3d2xjKhLiRRlsSlkOCl3Y2NTV14udoXLT4Xtx3ivL8yJEj99500013/ecvf3kOrJnfURlR3W11d96g3TjHv6tZunTp57JcO9IaBEiYFufRo4m2EsqE8pxiCwzuLpgcby5lBHmXPyvOvyu91ueYMWP23HPPPdcyhhTxiU/4mdHWWuS9nfu+//2F8qJXG2Olv5QV/xjLzB9I25foMuI3caaRBd//QU2E3/j9Bvx7Ey8hLVcVYuzYsVu4Prrj279/f7iLAj6pq0UnWn5CkXfXbYxQM+rlffdsW7Xehfki+TxjM+Wdg7qTL8p7sGT2VR39cbDSjeTIQx+C5mg9PN3GWtFXLUtSSHqO8y1u6y0ZimnQPo4fXwiVhKbqysCBAw/4O9mzZ8/Irdu2ecWPpBiPI9JfeeWVKdhBSnRpG4uVtzZggTuC3Xbre1D9fzuKifpTlHfFWmhLGXUtf7Nu3VmQZizQ1HUOlmffsG++89xzz83kVRB++jjU1sZgFm11FFbyQ6FMCH9WPz6ka5jp19BQ4p6AJGu96cYbv/Zes90+Xj++H/UBbygLFy68e8KECbvyxjBJjWfw4MH7BVZdXeiuh8lapv0uJTI2oXeh9fRoHAnDne+fOX36WtWIEkBnQbTXRffnn3/+s3i/5Hx48OBBMnaNwXqUbDJlqwLr7J4cWN/a2iNBIMEAsRhJrOtfffXVU33nTv+g5PbP75pTTz31twBkNc5MYdhXzN+nTp3qJUVXkyQk7ZzzgQ/88sQTT9wGn2GYcaTHtcYtWr24aeNMOPvrX//6za/89rfvg3/vzb24pauxqWkvNzjCG9TI0aNH+5z2vve9/Fc33XTb17761bL96PJHUIMlTDhkyJB9JtS8devWceXenzNnDq9Z44/79IAAmPC/pRRSGbFSQRNSpfPqhQu/CwZsN50nDYHCIPgrtDWP7cHBHrlZBDj0uuOOOxLxqUIdLZlfWbFvIG4jT9Y9GIwAzOS/Q2L1Q+pfTdYjz+/KscEJvuLyyy//kS2aMHVtYTPo8Wxqgql/jiVMOLSxkeJa++ApD8O2wKzWdpA18U9Um+Ri66g/CnbeOVu01+3fWf+O/dPi+O1vf/saG1IwaXrZvn37WBP+aGho+J1/jCXqaH1dnScuuWZxYxr53vYdO5oRdVCH3Zyxku6jicDMmTOfh3T4lwceeODTuush149pTVCvbjxy5EjvY8eOeWveB+GF/Dc++DqGaMM+HX379j1aW1sro53KnZl6I6qqXrwn3++NfxxHO/xme31gXHqXe3lP00dgSG1dXd1hGECO9nT+0oTQ+mtUca/4oz/yEnJ1+aMuQB0tGSj8NKexD+k7ivPN90QWRbhD0jpEldcgfF1jWCLRZD140zIz/m2ik5f7Jm3OKUpbyKLoJ+oJafNHpLKHyHeiYUW7E7zb4ZJ6oyxptGcYTykZMeq68DmuA9/D+1XhX42GptlToGsKF5P6S8wnbAkdhaXM+lGhHbkHIiOAxR/NshWSACQzBn1LBmT5frcZRoY40oPAc1i5NYgSrcR3mVkfFAQQNACTOhqd1V5jJtKKajzE8oqsUyoIITAOlzcQi5LtGj24V3pCQEgxLS1RMGmg/7Oss17n4CkteNgxWBBnk1tSuwjAWEO/1ydg+Bq4YcOGU/Hz/nfeeQc2kMH7R40evX3WRRc9C4NYGxKG7XbsWvMQgATrqhihwx/lYAy9R1snamPHjh1j3LolhwAYjTlta8VPch25lrshgCyXM+Qv4rqMeoIy0FmPdI9nTfBfs2bNB03ed+86BPKIAI4DF5mMC0eFwGCEQCZk3Q/ZmU52d+uWLeEWIJPZuHcdAhkg8NbOnV2lPONGzHC4LS0tm4OGHciEjCD3i13+P6oIfv3110+GIzaR2LsMsHddOgQ8BHZs395soo7OmDFjTWQmHDFixE4+LNM//FIxTDq+jYptGzdudNLQEW/FIIDz4Emtra0T4vKCykMiK78EkxJJyFysQYMG7TeRhLAiDUCMnZfE6z4OgUpAAP690WpcdFStUDFsdiI21ovL9n9KmJDRveDYN1GOgta32B/Rac2uXbtcKfzY6LkX8oqApGfd1DIUYX4Ohb12R2JCmL87UXhoHw6RjFnsyjRW/x2mjvLZ11577dS8AurG5RCIiwDLXajvxDXMDEWebv/+/UsyKNhmWT8hmJAVm7Wyu/ned5ct+xyKFt2GcgWxyxzGBcg97xBIEgGoob1HjRp1ldpHHHWUDHvKKaf8T1C5DLZZNqn3pJNOet1EEtKShJSXAUmC49p2CKSBAKKSBtHOYSIJJ02aVLa6eFkmnDVr1pO6klCeC9etWzctDZBcHw6BJBF45plnZhnyQqesGxQ0zrJMOHHiRK/IqXr+izvRxx57bH7cd9zzDoG8IbB27Vpeuqrl95b8c/bZZ79Ubl5lmRDS7DgspL82EcGsrMZitnkD1Y3HIRAHAdKxydGMnobjx48fi9Nn17NLliz5M0rDONn1ajVnvGutorLWBNxLDgFDBOQV2SZ8gKrbn+9pGD0WWUV6zA51B4hrlqUIV6MMDPFwrzsEUkcAQdsXy07DXHN+/pClHCdMnLhRe+C8nEPW89eVhnRSag/AvegQyBgBXiBjIgVZ48f4+niTQchsYpwLSy5GzBhb171DIBQBhHDyrk6jKhO8rjyso9Ca/0hr2uAXx3HF8o9//GNnJQ1bCff33CHw+OOPzw06jsX53fx58x4Jm1goE1511VV3UxyzoThRAsrzNU8//fRs/p+XhYYNyP3dIZAXBBCqduF7ZK93dTz5Zvbs2T81ng+ixwfKWotSN1Z15LDfCQZmGcTREO+9jQfkGnAIpICAqFTnlTcMo3HVIyCrrvEduCZ+BcHjXc/W0ydUMiHy++AFF1zwjK4klLsI74tDKkfJXfZhA3R/dwhkgQAc9GdLmteRhHz3kg9/+HHcieHdcW/0gVHlhB899BBvttHyF8qdYcqUKeuRbR9aWMposO5lh4AlBKD9rTel+ZUrV/6BleEgcFUyTlflYXVwUUS1EOnWHPco+dclwVELciIuT7kDgQWfszJh10ghEGANUP6APq1HZImrIEroPQ7d49kOa14B6LTeBRiz58x53HRnwO07f2+6wmBA71yJewGawHz/yMkKJu9ctmzZn5i2797PPwKLFy9mJJe37tSwUOz4fJujvuWWW/7WlNbBLz+xOSavLUQOnKUSfNBhNOx3fB/Gma4CqnEGKS8hwabQH2FAX5BBBKokxoJ4N9y6T+UigE24Fg5wRnJ5xyOxAXeg7P99CDGbbDpzGCJJn93um1D7ikDj3j0gq1at8jIvrH4wuEFwPK423CE6IK0+E2dgYLouiyp07PlgtBcF8F1nVPn/uXPnPhqnbfdssRCQWhlv/lLpUK4/iR8b9A2wPWirqHj/OrajEyEmNwVaRaGpJXMRj1D/jAw0dHeQoeMsP3T0qZjYCyrzKcB7Ow9ViPb2dk91dp/KRgBnwUkiEqVEYknJiM3+j+OeF+mOk3RmwoTgk9sSWQEcMmvADFMsiOpOiOo5UQYJEBv85z7VD8OxQA25F2rIpCjtuWcqBwHQRj2k1vXiWBLIjNCM/p0beNRZC7rs5huU9KZ+9/Q70iSNhVH7jPUcVIF6SJreYgcykoaCkcv2j35qsJNdCYDfKSf9UFL8QZxTZ8SahHu44hCAU7352muv/aYUDqQX/0bNm4ojnhe17x6UfZI/oA6H+t+NFgLMscDPGFF3CfUgLXyP3cbC64j5C7gb/lSVuLI/fvNcih3r4sQnaoSSezltBLAhn0PJV45uuKGzgG+5cYEeGd9s7IZbsWLFxxKfO9ObmHUvdxwd3ZnvEjC/zi79f7xjL2hHI3PCSto/8Um6DgqJAI5MtYr7ohtDkcHAIJcHTYy+cGHUM9LwmLYEQRLL3qENNPx9XzZhQpniRJVTHYS0hELSXSh2Je8izFtvvfVGXdeG9iTdi4VDQNIPtKRaGOq+KCWb0KQ6yvkTBXNqM6DU8MAXt6QCGnaNWnHw1A5uVUPZRM5W19ghDT2VlH5JMilMvcNTmZjrpOIQoMGO/kO6DMBoHw2aIDUr1eWhamBhPkH/2TMxg4x/4HSW8nc4DN9lIg3l7kTHO9uT50HVL1hxVOEmlBoCUdPm6MqQElPnaCUZURiHUptfL+jefeirUQevMmSc3YRtSGknGTG9mbieKhkB0hN++uCnDj8lDnz4BYf6GTAO7aqGRvBD141NqWJqWvpC2UXuTHXgrjOHABAQsczGZ0HEiT6WGaDQuU+xIcrZhu0g3MxAcR3nGgEZ+iZcZMZ+QdIu7BdnZjppRqyI8123WM64vkORvZ/pXFznlY8A79/kLNUqggZHqc4rrrjiB5mjBl2YDlCjHUUyLF0RmU/IDaDiEWC4G2lW1xCjngVFceDsMYNlaLEqDTUPt14gtohPzX5SbgQViQAja6TQ0KFT1S0Bur8zNyD5LaW6OwxBEelSuZmbG0hlIWAa+6xKwdwJDEtRNJ40FJkTlbX6bjaZI4Aomr8zVUOV6JibM5+QfwCMZpeRB7piXt1lYC39UO4m6QZUWASE9V07Y15VQ0nnoiRi/vAQEeRGB145WVHD/8T8zdKNqGgIwCnfJGvn6h6VlBA2BoIHhsBljotMLVInKyWiRmKkVzsEwQBPZT4xN4DCIyCCSoySdSUNF8KVBusTi6ZacVmwHdYMKTwVuAlkggAEQ42gH2v0WJhEctOScarKQEYslweWycq6TguDgKAb4+ORYoz5MidfiCQDDHIwz3S66qhffWV0A8zB7y/M6ruBZo6A6g+MexwKivYiPeNs2SgjbjKfYJQBBFmjdA/FZGZKxNTytcpMkEWDMouWjwJ6Dp4BofZHVsyQLIcCy+UYG0cin7X+vCznpN23rJRmYyciqDhgP4kFHqE9IIMXlUzt2LVTDbot1KvwFX9JFOZlUHMmRbjoKvOXxzShPwoA6bdWr18ozMIgC7+fjQgF1TwsAE4VA1FNucu6xg0hbk3LVAecQWdgutOl9CHh8pp0liVMcyjIc+0rIq6snQNHNze/KfIO05yK3b5sBXirjIjI9fvTrLbmd7sIJqyzi1SxW8NGNZO4qOuUpmWbl6+gQNhKdQy6xx9fsm7ZCm2FWjFR0MmKn4a7LIFOq5yAcMzKOw+8bxDXXxRqAVIYLFS1OrV6NXGiQQ3q4diku+/o6KhhbVFBG1qXeiqbR9daV1RWD6RWb5l3aLI7+YDyqm/TF5TUIov7BLqVzmPIEiuDJ9VnkduFMY7Gi254iQybxKblZ0Bb9EWm5nEqqCxGYpNJumFMqI76NXcrlZmCzMFRfyclYlKXj8q7N9QdVhQGShquwraPjfF7co2l1iLcBdbnxDKYYJZvyfWxRVc8flTsRoud8oPqTmm6a8lFFpWXrS6yWtZRbgq8o5GbidWOKqwxJLme7JeGWJ9VtnHDVQnSCNOlftqiJzGHClsZZTo4wF+UBCOK66iG2UJOxK12uwMv4n0GtoZQ2HaEQaYbdqiM/VlbE2IVeGkFVTUrEyaUG7q/ILWtMeemHZaf42DkHXCq2mKqSpCxyTjCGms0Z/VsI1UdF0weHVJxP2BJGXpWxo7eSvCTdMQLA5BnibVFQ2yHvmCeMU3HWJj3hQppVG7Ov/PJ3cwkxI0Vmf1WPvRzXERh5ApfzpOXrmblGO8JDHEZbDcmEUm12hj6Q9FMJJ8vPpl3ozzCgWH9uy6l1R5oUV7EGaG/PMSrKoXpzsb3aRrXDfoWZuluLgkRLZMraEXSc5fbByX8fj9PA6RlUW60UpugtiLPW3EKPdMnLIOxZVummpPiC+yEf/Ff4ZAfkif8UhuLqLxtnGZSTiLqOItVC66UrFgga2dNW+DS2KFuWIxQsdW2rXaERtJNLcXG+322L48mUfqylY5Ujk5Ah7lb3yi4WHsGAIzyZ1zYVDOY0BnHYSyZUO64K1euvNTaZC02hHn9XGVC/P9Zi80bNyXvgoAL4TuKJGSi9tOCCUPPh8yIlwm5tmhClaCkO9Kf8WQroQHsmNNkMVZTddR/WGd7DCqOWuEbu+7nqTbxJ+3wuDhrCeJ8RsUKQQStcd5P61lalJW1ZW6od4lmmBOc6yXCBUsu7pTz1jXM8H1eGhrnKu208Mq0H1g1xwviT8JY01XFLUrMKQhngrCQZopJT50HSMJf5HWwZESe6aJuhLIqmpSgNqWgaLMD2lFLXvHKdFy8k9AvEXV3u6CDO5mcWR2UvJlO1ELnRWLCnqbLLHVpkeQZUmbd2NSIVCOMSBAv/PpbIKHyTZARk5CI6kKw/aIH5wYw4epEFybhxmVpelXVTEICVsIGnPBSvNc8s9fVCztsLobKjDxziFC6VOZls5O8G2aizpW3IwVpPzbXXJ4BoYKOizou9xwQ4I4lraZJqCYKMzIt6p9hJeOFkYX5FJ0J6faR9wMmvL40zG13RhhN0halLKz7Ef3REiQCqqhQiRbhfJJqNrgmNL2KyoTAd6CIpinJL7Up/dRNNquSKLprm7v3AODIJCJrVIOPqqLC1L8RwcYLEfGR6xjCojEhy4FQ9ZRVCtSzXxKSkG0iEuYBx4CWWJq5XWoIlO0dU7WkSqmI/v4NRDPX0hSsN6NeVc4x581Zr04YOM4X65ea9GMsKFTewdaBr/YG/dkXSTGjqspQTYX6tAALOjBP+OddEhIvpK1dTPzExmbV/xu09nIDzWOsb55ox3gs/nzENNQa9kE1irlmzOY2noSFBvxMiITjn1po1rgJFsilu4H5nZL5kl4jddOU+YCFKtJrjHqKDch4RLoV1BjPJCWiz7/oGXB4FyMdyzL6Bgue+vnRZ9zowOY0O8WlKOmK1mxx/YFaGjIt6edtkhWfEZ/lAgf1zYO+KB5lPbYwLE1Gqj1TpkxZzxQiFpzNAh+Egl2BAOl75V2Oad+RgHmPZoC7GuOZltRTpZ8oyuSKb2VBhJREPK/Jc0fSErGca4P9kxDAFB9n/csssEiLASH1BzEOVFRRS1XqBRnQGPmUdpHhLNY3930ywsYfc5gRQ3rqKsdCCUEVDUxZ6ExtjL+GAe1w21yj3POXmrHFv47ynMnSk7KUSVhGRu4JuFIGyGpeKFF4m18qSvUoAzXJY0iYyh/FuO6AyjgTxNIIovbq7OT1w4x4+tYo7TDub2D8j/kNLFlgqqqfLEVZ+NL0CgGkblBImviYgvTpBQse3LVz52j2hcVLusvA9js7yYMln07s4Js+9alPLZ84YcL/jh8//o1m1GKdNGnSm3V1dZQuqX8g5SaBoEft2rVr1HPPPXfB/ffffxUYcQCh8w8mayyZF7pi+fKPz5kz55epA5Vgh9lQaIITYtO8H/Guu+5a9JWvfOXW9/iwpheZQhKR/HcWv/NPHcHLB5uGDds9efLk11rGjWs9/fTT18Hyu/XkyZNfHThw4EFKnb59+7b369evrbGx8XhU6FjDBbU5G44cOdIP75zQ1tZWD+YaDKY7A5kqs9/auXPkju3bR7e2to4XTOftWbL9PGAl140YMM70huuvv2vkyJF7o2JQlOcqkgkl+KxCtmjRortxdpgqmTFPC1NGWqpD9MQppee4ceM2N48evZ1My9+NHTv2zSNHj9YeamtrOHjw4CD+Dsx65K233hoN5ut39NixWjIZ5h6UO5cbKVduPSQ2sLy+tHTp0mtmzpz5K/r+hg4dmonGkCe6KeRYcL65jAd5DD4zg4KOoYgSwNaPTv9pv6POleslS2EI7aaiBUYhGSvuoOHTGgGV5maVEbnoYT7BoEBv97v3cLOJn8KADIa4hVW2466xe74gCLCWDXxcdwpmTDRNKm1JUsT+VObjusCtM6UgpOSGaYoAfYtqxI3c1W3u7ralRaW1JxjQq2oHg1FlXMZpSpjV+D5N9OKeCa/MocqERZQseR+zKvl4y5WoKVSNpOfm7EcAkrGFZS5UNdUxZI2VAGyfcYnlRO6kJiLXIE5JfEe5VYAAiONEGAa+BIlCn5yVK76r2fgjGZB1XmhwEfc+VgEluSkaIwDr3HAEh39KvQdPElTeVb4sx+eXeoyjpasB0s7zZbqPQ0ALAVjsfg/xil/3M2Q1S7ggI5E0tDChV0i9CVEqnmstinupOhFAjGV/GBLOoEGh2s+OPonnBasDl58guXhW0cpHZk3NLgrBYAWQ0HvJU08+ecnq1atnifCwbnhmFfBsMKWyrwaF2EHirb3kwx9+7IzTT39x/vz5P0V8a3sSfVd6m44JLawwJGTD5s2bW+67777P/jdiNV9ct+4sBEV3KwylBpFnETiuE8TuZzwYV96aOHHixvnz5j0ye/bsJ5D9sampqel3FiCs6iYcEyaw/DTq/Gbduulv7djRfO+9935u3bp1M5RuchU8HRZEzvPdJz/5yR9MAPOdOX36ixMmTNiVAGRV3aRjwhSWn4m8b7zxRvPTTz8955VXXpm2d+/eptYtW1rWPP/8eeWYU0dysa2wNK1y0+VNv0OHDNmH/MZtSKf69bRp016cOnXqq8jMaEPmRmByZArQVUUXjgkzWmaY7Os2btw4/sCBA0NEQu2FVGV/sXr1RRhSUuviMRMqUz/Y0tKyacaMGWuYEoX0oLeRp7cHP+9mBEdVd5vUYlc1qLYmzwK6e/bsGczz5e7du0e2Hz5cv2/v3ka2v3//fu8Cm/r6+kMUgMq/ezU0NLTV1de3Dx82bNewYcP24OcAGOyArXG5dhwCDgGHgEPAIeAQcAg4BBwCDgGHgEPAIeAQsIPA/wGiCtF4gmsIPAAAAABJRU5ErkJggg==;" vertex="1" parent="8">
                    <mxGeometry x="32" y="247.5" width="225" height="225" as="geometry"/>
                </mxCell>
                <mxCell id="16" value="" style="shape=image;verticalLabelPosition=bottom;labelBackgroundColor=default;verticalAlign=top;aspect=fixed;imageAspect=0;image=data:image/png,iVBORw0KGgoAAAANSUhEUgAAAOEAAADhCAYAAAA+s9J6AAAysElEQVR4Xu19C5RV1Xk/IwwzDO8ZngMygKA2AlEUjdGIIixDCrYmJjYJNhZrE2midlXb1bTRpP2bxGpaIyzyQI2J0FSMsVY0NlGjxFQMCVKppioVBnnIQ0Aww/Ca6e933Hv+e849d845e+/zunfftWZdmDlnP377+/b37e+1e/VyH4eAQ8Ah4BBwCDgEHAKFRODtt98+oZADd4N2CFQrAnv37u3jGDd/q1+TvyG5EUkEdu7cOXjPnj2N+Bm2e8+eEYfb2+vb2toa+Pd2/Btf3vrh3/34PWTIkH38HtrYuLe+rq59+PDhuwYMGPDusGHD9o0cOdL7W9Bn3759fTo7O09obGw84tBPHwHHhOlj3uvQoUO9Dxw4MABMNgIM0LR169YT165de05ra+v4hx9++KOSuRIYWifb/NAFFzwz5bTTXjn//POfHTFixFuDBg3aP3bs2G1jxozZm0CfrskQBBwTJkwi7777bt8jR47Ub9iw4ZSXXnrpjPXr15+5ffv25n379w9d8/zz55XrvqamphekUy9+8yP/bfq7cv1Nnz59bUtLSyt+Np900kkbZ82a9dTEiRO3ov9j9fX1xxKGqaqbd0yYwPJv2rRp1G/WrTtj0xtvTPrhD3945bp1684S3QTiLRktgaGENkmm7uHTCeb89cKFC5eNGj16x5nTp784YcKEbaGNugdiIeCYMBZcwQ/D2DFo48aN45988slLHl216tI3wHy7du4cqaqVqmQzlWa2pWO59vwMivPlwTPAlFBlN1x11VV3jx8/fgvOmu9YgLCqm3BMqLn8ONfVP/roo5e8uH799P944om5Qtp1wzNLCac5rbKvBUjMztPAjBfgfHnx7NlPXv6xjz1qu0/XnkOgBIFt27Y1rVq1atbsOXMexx87xA/1uU4wXNX9cN7ix8OCuDz77LNnAachjnwcAtYQOHz4cJ+XX3554g033PCPOB/9KojxJBOqzFiNv5MMCZxeAF63vfDCC1PgPuljbTFcQ9WFAM55jStWrPjYB8499xcq41Wr1Isq6RXpSCnZAfxWL1u2bAGMVWOqi4LcbLURgNQ76W+++MUvjxg5crtKUJIIq1HCce66Ul5iiDaOE1fgO0l7cdyLlYcApJ0XacIPme/aa6+900k9+2dbv3QEzt90zFh5/KQ1I573aEiA6X2/ynxRVS/3XHyGVRiyA5E7TyGA4VStxXMvFRsBMF8NFn/SFVdc8QM/8+mqXSYqW7W+KxiyY8GCBfdCMp5cbKpyow9FAOFjtXwIFrupfrXTSbT4Es0WZqpkxLrc5ZgxlJSL9wCYz3OgwzrXDMPALeXOfFICOkmob4QxkegqM9KAg/UaWzxqcyMuQYDB0/wlXA0fbRk/fqNqILC1kyfZjs+gIR3jWt9JjtNW2+p8sV7/i3X7eDWQdUWGrSE9qN/QoUMPwegyY9GiRXdDxZmKxQSt5Ge6PQROl0RUgyA3TZ48+dXaPn2ONTc3b1UIs2bgwIEH+jU0tPWtrT2ClKgW/g2bz4DtO3aM3rJly/jWzZsnlCHkXIfYCXy80LilS5deM3PmTAZKVOQnP1RpEV7k6Q2/85vf/POvffWrN0vmy0vQtDJNj9mYdItA6E1IxH27Zdy4LSC2p6ZNm7Yevz/Q0NDQjkeO9+3b9wjSiQ5jE+lA4u3RMKiogiN9qi/jW/nN55EMXA8Vb9KOHTvGrFmz5rxWMOjrr79+8tt79gwn06qMzX+nFSTOvsLStPjILbfc8qXrrrvuW01NTRWX81gxTAhC6g3CPf6zn/3svE8vWPAgshhGq8QURri2/+6TdF3SjUx35ZVXfg8JtauRULuLkg27/Sbb/UdtD1pCC/Ibx+zatWvUa6+9dsp3ly1btAP/9zNlDrDsRADFjhXLl18xZ86c56LOzz2XEgLY8U+g9GN8J7pkMHFXMLX8d5q/Y19iHB1z5879d46LIXAIbB6GzSLXsZSM9WRqFjczjpvjl3PxY5kmptLow7FgXLcDR6/Mh/tkjACIxVOjsJtPHt3c/KYg/tSzGVSmI5Ew3nTlypXz4Issdx6zghwKNyWuybAUB9w60zCfS5U4Wm+jU5nQlnEmrB2JNWNSue5WgHSN6CPQ0dFRc+utt/6VX/qFLaSNv0silFKCvkdKOxiFBurPKN6bkP4NYPTxVMXjvan/NJiyL63NV1999bdUCZk2Q8q+ERx+JYIvUpu/PnIV+CYIrz8iLb6n7siSEFSCSOJ3kgBwlvsvSggYPLzzZ5of9Dkc+Xs/4fwuu+yyB/H/EWn2z75YxuNHDz00b8qUKetVhkwr2F1KRdDBPaSHtOdf1f1h9z+FDKAyoA3pVq4Nv9SD9P1L5spluQhgvAeUcXUy2iTt8UDqe+owY3CpstLJnrZ0lIzI4wjOsR9MG4Oq6g8LXkf1E+rHZ8RCe2e/FKSeZ2RhQi/z4uQ5NGvwEfz8tCrlRcJx1sPqhXUaRBVRbJIlZ0d1zLYlJtcJlQ8uzhyEShwAGZDzgq/o77KQfixpgfPXoDxhm1cmlBixxAVwu1BumOpmmZTWIqWisBPkabmKPxYwQJMwlSdqkVPVTvaH8878vKKXdyZUcQOOHwGejyj4JmbBloxIdd25MSxRL3bUUQB0pV8CJqHWsE2qUSQamXVhaRrWm/EzIUz2uXZg04K7ePHiq9UYXtvqqNoeJTBTpEA/zdbBr6YGASCtjt2c77ZVGblzsh+cZT7NuNMiYOxnQlgoaajK/Yf43n777X+ehpoq+uhwjKhJFrC2vZ9hSqoEVM8VtiQhF4opTlB5GzWHmslrfibE/3+eyUA0OwVjNMKi+0/qJpvQ+jLcbTutt5pDrc7XmNjJAGZ1UWxKQCn90Mc7VD2LiLKfCaFGv1TEecCtcC7Gvl7dbG2utbSgc61dwnBECsGOdXpSKqhcaLYPlei6iEPK5WN+JoTj/olcDlQMCiF2PV5oCovmXySposqNF+ltZ+YZp8zHRgaUEjAh1cSL65SqCc4nveH3Cwx5KpphBgaPNzJfwIAByPhWWeGgpzFiXU7F+jyblIpKmqJEZHGvPGKV+ZhEMK51I4wq/bDb3hQ2UYaDMQyKhCDKYYS9ksnfA86Ez2QykAidItb0Mm5+KKy1HJteaPYDsiS+lpRUlBLRqaa+haMRxi8BbUhCyYB0O+DscX5P9ALi4M23vVR3CAmBsaER6Cz1R4rChELqdEXORA2vw3qdoxZgVqOjTGlDSkTSXeoLl8cO6QeUYCdwIPdqWzLXMGzukglF+FdXSJxIkQp7PfW/B/gJ/zP1QUToUG5qkolEOFuEN70A8ZGY55PcDBOgDc9qWvXuCwDAyP+kVFAaX66PtNp4CEzohcYtWbLkT/07LdTSr0RtJ63n6IiWkp7fUOG+kVbfUfsRlucuBuI44Yv946jvy+eEES0JOvFuk6IgiDumwj9PgwilUxKRMIIwO5jzxiK/UcECE/bBuGp5ZpFSRhI5/ZW8mSlqW2k8h/GcSCnPsXG8WaQy9TRP4NifibfqRsH/6+ZbYj0vT8JoRybkhlZVIW5YBK+8g4wFtalmSAbUtX6BcLyiSHj/bL80hFFhRRrMFbcPbGbemPP2gfT6PAlcCSXrELhqD1VYtRORiCI1THtshXqR6Uj+bAg/weukKLENXlJpKrHk2VAmzKq1TUBEHygU2BkNlmc5MqBcV7k2NoaD9Z1ADUAyuNqHSSwq2yu67zgyviIf0Fo2hFR3aAJnIaXIAynzoHQqC8tZN0KC9F6F8g5eOX33KUUAG9gJPALw1iWVOUjgNsPGuM7qha02tClBR8xHnFXRaytu4LGmTkgGpP/JJnNItRQS+299UppnzaqoCq1LiNIYozKhwFG3ybLvcd1ViWvKjJIRKzZDnzVAZEkKE7XBl67SiYJD3wEDepZN2x+W/lNjWLlILM/O7HHbfRW9PRrbOAe/i4dMgnPr0CTmx2sOlIJT1spcwi21paJq1tD0z3OgLMpkulspZzSPAZNYXLVNIfm63f/gMreDURdYdTnmyYA4Z30h6TWSEU6q1mJCZxw3LaZQrSvn6CHCxboI2UQSShU0DQaUxON3jHOR8uYSSJrQw9oX4WjdztCswgYJGRqmFtZ2lL8HXXenMqWqHofRn1RLdXyaUcaa+jO8hppEa3GXYom/lUmpoEEABRhpGM52Wepg5rhDmf2iEnia5UEgtU7AGfF+m3RGui10jCmj5lkbhvq1TWDo8AUDpl5KHsaFL0opLCShsSU2xzwVe2iwKvNc3qWK0g+cRcl/9UxqopKKYw+zblYX+nzIOwP8aoCJikA/IMzTTbEpxMILWIgTWGEbdVI+m9UYLEwj0SZ4FR1Vd95hkVV1OqzNcDXiKUz1DPNJc2MRdJwodok0zgtFbKmhUkc3dcQnMlHXaO4QEHRi5QgkaQ/0/KHcTbTcgHAQr2e9Fn9mhF8iRk1NkSBwly0MCG6gmSMQFGwRJvV6oknQ8zYYn4pTh0gkw1qpLUlpSjUw81V1AygcAoJurKRBkQ6TCjqwCixLQqhJnCYHYyEBO+FnuiFONoTVCbnGCo+ArTQoRSM7J/egyMpZJqJfMqA4YOd+zm6A+UZABHxb8VPHSUrOBBXm8FFsm0hANQM7SkZ8JhN1nRYKAWZ12KreII5Hl+cOAJrveUefv8S5NMZENcKoIWmFskblbkXcgPwIsL4pGUiXJlXaJJ2D3sfkDmUbxhiphrrYzNwtb0UMCP6+2ySNmWhrZGZxF2N+cIE5+DT/LqMzSQLEvEAGfOdndm4klYSALLmhQ5++DB6GtDEkMx8fETzblagrRX4c0S92KCZ/Ts3HrNwoKhEBccNyt8tL49CpqpaK5OXsYUKirpUAbQKRRtpL9oi5EWSNAI47N6qMpyMVpdCANJyU2XxEKYPeiFz/gV/P1pGELE+e2WRcx1WHgJpgHlcSqtJQlJ7MDj8RSmYUoyd3FKS9zOVMwNzuPJjdklZNz6KEhRXahTZ4SmbACellFJ5GJoSl6ebMJuE6rloEcKb7ZxtqqQgGSB9HoQt3y6TWSRvByANrkPC2JASDO6mY/tJWTY9IexpM+tNVRxW1lJbSdItD04UgLvbQloLyHMkrqsutOhix6+pqnkGrhjrcRBNDwH8Vnri626gEJ2k5dUupWrJCxwijhKYF1iDBDjVElHjfzm/Tys2JrahrONcI4Kw2iZW1WSFPZuL4Lyvl1Qcy0ituZJdqoKFEZWHi1AARF6RoS0E5eGmM8Q9cjXyXEpOS18WSprbEhe8ogIbog35f0MRQLeFqMpGOq0I9gqV2nyXE+WDTYFgyFmqQPMK6kUGgyPKIqpQVzNgBH89fghmHFJ5K3ASsISAt6qxpgwJc88U5r5u9gvQDZuONW4Ef0OO/SXrTYUbx7nHElCZ/w5PMlPCroeoEwlRU/h1ScF45QFgaQ70g0s+MLOYDsP/A2iq6hgqPAPNY5SVDAZu3d0021NOy6qLQykqivqKqqFJICP5IDk8k1/Y2jb2Tgw0bJYspIZP5b8Su1u3gLNsA6I9m6qMJm4T7e2IIyLMd6KRRGEVKQtEknbBSHs5rLREGY+w3JH+0t7cnZ0QUB09tk64ApROXblwUARDvEcaS+tVT/4EY0fF3QCVJpNR61HG659JFAEzYn1XdeD+jpCtfgDXr0z4YJxYZlvoFsq04mp0/sFvEpyYDiGm6EicGVfIFnOkGxB0hGHe2kIolmwDb5bXWkIonx23XPV8cBOTZj1fUybAzP7NI6ScYKtbkQJcD/felxD0fsn+RMhWr70gPU+yTgdRJ6wxQXB4Zqc+gh2TxHsGQ3XR47nx8x+8L0u7MvZhLBNRLevxaEVVPuB1ib/JyomDeK01pnCopGJqBAHY/4t62bnp31EOrGllgY3C0QIndptvlI+L6bTKhp5Pju3Iu9LC7nIVtjQEcUgVV6YpHFpHRYzQ3wcCmRy7eSmy/RCerX5vuEHQvGCHkexmgTxTXHHvlyqV5GOeFPvKOQb5C9YV3R8ACdqkz5NhcgWzawrHoH4Qm1EFLue1gDlM/OPlE8Is9gHD3Q71U/3SqqHFQfD+pAyujHuRsqYqCCT3/IyN7RMU2VYIf521BdHFgXt6deu5TPARY3BfMd24Sa2ijcLDgF3vACp+cdkQBmTCtUnFgwBowpXdhjN/XKDYDWfqug+prHOuZPURdS3lGgHVuuVEban4d0Lx+39o8RVEb7TA1TiZt5zoc/udzN+rJeCQlNG97zVW9EGsr5xrSRUBe+x3X+Ki6K6wFdUO9GyCvm5I7g7pDhP1OEjrOa826gOi8J0CMFAHBMdLiBsvt9Qh9SuVSS505uXfSQYApdOISWO1aNFL7s2GI9JzlYRIlTNqItKd0EBS9iMlHjoCQmwX9jSL+MNXxus7yhwA0pG+bqqTgn2nGM5NXXcd1R6j+G/j2MqlYjPo3ywVzlYS99WRg4qbDd60AaLwCroGsEADdfpy0EKbtlUtm53sQQIuNx886oIa7QSfE+yDjgWg0wFA2vyodRcdXGNe7INLVQdUAvwJeEVeyGxkkje5TEaXtR5ikLZGYBRNntiS8slv6OONuJlJF5W7ISIosrunODDjXsYeAiRAi/dDWYGQPkRYivzhWibmcqJbSBOerS7NeT+5ootakyUG7g8ycSCRE1gC5/ssiIOhXK1JM8gD4iDmOeh+RnazlmpBShKFEeSnYxB0JZ737KdkkQFHUU3+UPBOSWTpBD1X3VpEQkIbJuFqUSjNLliy5RmvOzFKW5ynNKmrMnn80iYgGrQkpLzFpWIa7GUj5Dpb/R3BAJuddUwzc+9EQ4BHEnywc10hJPkKOoRdAEusDJqyTEiOOtFAZlkaNWJ2m+DA3GaVKQGRXhl8qsogQzoufSXHorquUEWC+qokkJB8JI0+8kYugWC1VVO4UWbkm4swU4NT6MzLibDpS7SbQzqURB/niPAvN6QKubxy6UJ/lu1p1SVEU588EgXUxol9160ks81nkII4oCtTMwIDh5TFV+sedL99lSg3aOrEo83bjDEcArq6Bfq0wLm0IfgrvTH0C0QLfNRHBNM0KlTZexxk/zZhTcRbWVVG9jBEXApfxQlrsHtpSjT+ROI5UJB/FjiNFpyeYHkazCFWziHsvlsfjeU9HG5AqKt9nWY5ypR1tjte1lSwCIomhSyWNKwmFVT76IOHgHmTqpMR58BPRe8znk1Arh0O9vMevikTZBSXz8l1WEXfJxPlc46ijgpuBNUu1bCR8j6l8oKcmptpF6hMEM1mH8NR4Uah1F0bqrAAPMRkZ6vlSiUmcxVCZkQHBOCcPL8CU3RB9CIir1LTurJCaUU91T0sAZzkIhXhiGWb4HvVnWIPIyBX1wUKcK5KTY9cgkXgyS4OHdPiNAquPVxRgFTQZ0POJ6lWAciNWN+Ryv5NrD746MzIkInpcW/QiK/m/IndWsAcR/dNPlNMjI8Yy3qhSkcYfMPXMgk2/qocrbQRRjiP+Z7j2sapzw2/2jTic7ndV4Az080pfLZybh4o6rFqpLlJFYYkNd14sBrWoxc50+COWhRSE8bAqZuNwPt+DMeP7xYDVfJQMaghSUaNgpkpGBJj/NVRURim5T04RMEny5VrLtKaopThjqVm+6IDOagzjYg0doa7EDg5XmRHt/CGY0VWByyEjiludtCJnpObDacVmwigHT786Wq3hW7yyzZ8yFQc/uVD00faEIYPGmVJFAw9U4r/H92dpTMsqeTqH/JLIkOTNTXEDuBWvATfoXli/SEWptbhddpbqjaWJwG3WKOMERbCCkVTkGUKtAkfGU1KxugxDGK38t1eWA8+dYzYD93YQAiw2TayjHDWCnhHr1AvBGz37CrGb9xcPe9ZRjZ28E07JkW4ZvRul3h9QfDgSpqqKSjWINxDJdZFrEvQtpanwSRYmdrcI9GKhAlsHDXqhc6U/RGW8OFwvCUcMNrSvangAqkeDKAJr5NJQmDLUdSSfZdRTkYLo804PjKBSBVQc3hACjdkU40PnKRyKoQtdRtx20jiBhbd/I03oyPP9AC2fonJdbBU17mKrOY9kRFcbxw5tgK4HGfoKA6+CKMn23b1njxdW1dnZ2QuL2fUd5Xd8ZvLkya/W19e32Zl25bQCTA5jNrfjXPEIru/6fw8//PDlwNg7G8TFmc9HXY81zz9/3jXXXPMdGHBa2VUAolSP43yixT5Ga7FmymmnvfyRj3zkp0OHDn0n2ivZPdWvX79D48aNa23dvHmiJn/U7N69u+SIUMKEh9vbefmLRxjqd5TfcWC1ffocxbueFch9ShGYNm3aa/jtJ5BdcfG8efN+JpipG2HrYC978r9LRl++fPmfiL/bZCBryyvCHGfA30pscvtpbGw8CsPXW1F4IWg9yB/thw97/KV+Su7Wbmtr88rA8wX1O+rvmpubt2Gwx/0d8ZbVqP4R9V15O2tuV0ZzYGDAp3BIH4a8wxug4rzxHuTdMZf/j4p90HOCKfH13q7KLz+jZv07WAsHgQH/h+UpNeG08hppDWf4Hu+bx4Zx0GQ99u3d2xjKhLiRRlsSlkOCl3Y2NTV14udoXLT4Xtx3ivL8yJEj99500013/ecvf3kOrJnfURlR3W11d96g3TjHv6tZunTp57JcO9IaBEiYFufRo4m2EsqE8pxiCwzuLpgcby5lBHmXPyvOvyu91ueYMWP23HPPPdcyhhTxiU/4mdHWWuS9nfu+//2F8qJXG2Olv5QV/xjLzB9I25foMuI3caaRBd//QU2E3/j9Bvx7Ey8hLVcVYuzYsVu4Prrj279/f7iLAj6pq0UnWn5CkXfXbYxQM+rlffdsW7Xehfki+TxjM+Wdg7qTL8p7sGT2VR39cbDSjeTIQx+C5mg9PN3GWtFXLUtSSHqO8y1u6y0ZimnQPo4fXwiVhKbqysCBAw/4O9mzZ8/Irdu2ecWPpBiPI9JfeeWVKdhBSnRpG4uVtzZggTuC3Xbre1D9fzuKifpTlHfFWmhLGXUtf7Nu3VmQZizQ1HUOlmffsG++89xzz83kVRB++jjU1sZgFm11FFbyQ6FMCH9WPz6ka5jp19BQ4p6AJGu96cYbv/Zes90+Xj++H/UBbygLFy68e8KECbvyxjBJjWfw4MH7BVZdXeiuh8lapv0uJTI2oXeh9fRoHAnDne+fOX36WtWIEkBnQbTXRffnn3/+s3i/5Hx48OBBMnaNwXqUbDJlqwLr7J4cWN/a2iNBIMEAsRhJrOtfffXVU33nTv+g5PbP75pTTz31twBkNc5MYdhXzN+nTp3qJUVXkyQk7ZzzgQ/88sQTT9wGn2GYcaTHtcYtWr24aeNMOPvrX//6za/89rfvg3/vzb24pauxqWkvNzjCG9TI0aNH+5z2vve9/Fc33XTb17761bL96PJHUIMlTDhkyJB9JtS8devWceXenzNnDq9Z44/79IAAmPC/pRRSGbFSQRNSpfPqhQu/CwZsN50nDYHCIPgrtDWP7cHBHrlZBDj0uuOOOxLxqUIdLZlfWbFvIG4jT9Y9GIwAzOS/Q2L1Q+pfTdYjz+/KscEJvuLyyy//kS2aMHVtYTPo8Wxqgql/jiVMOLSxkeJa++ApD8O2wKzWdpA18U9Um+Ri66g/CnbeOVu01+3fWf+O/dPi+O1vf/saG1IwaXrZvn37WBP+aGho+J1/jCXqaH1dnScuuWZxYxr53vYdO5oRdVCH3Zyxku6jicDMmTOfh3T4lwceeODTuush149pTVCvbjxy5EjvY8eOeWveB+GF/Dc++DqGaMM+HX379j1aW1sro53KnZl6I6qqXrwn3++NfxxHO/xme31gXHqXe3lP00dgSG1dXd1hGECO9nT+0oTQ+mtUca/4oz/yEnJ1+aMuQB0tGSj8NKexD+k7ivPN90QWRbhD0jpEldcgfF1jWCLRZD140zIz/m2ik5f7Jm3OKUpbyKLoJ+oJafNHpLKHyHeiYUW7E7zb4ZJ6oyxptGcYTykZMeq68DmuA9/D+1XhX42GptlToGsKF5P6S8wnbAkdhaXM+lGhHbkHIiOAxR/NshWSACQzBn1LBmT5frcZRoY40oPAc1i5NYgSrcR3mVkfFAQQNACTOhqd1V5jJtKKajzE8oqsUyoIITAOlzcQi5LtGj24V3pCQEgxLS1RMGmg/7Oss17n4CkteNgxWBBnk1tSuwjAWEO/1ydg+Bq4YcOGU/Hz/nfeeQc2kMH7R40evX3WRRc9C4NYGxKG7XbsWvMQgATrqhihwx/lYAy9R1snamPHjh1j3LolhwAYjTlta8VPch25lrshgCyXM+Qv4rqMeoIy0FmPdI9nTfBfs2bNB03ed+86BPKIAI4DF5mMC0eFwGCEQCZk3Q/ZmU52d+uWLeEWIJPZuHcdAhkg8NbOnV2lPONGzHC4LS0tm4OGHciEjCD3i13+P6oIfv3110+GIzaR2LsMsHddOgQ8BHZs395soo7OmDFjTWQmHDFixE4+LNM//FIxTDq+jYptGzdudNLQEW/FIIDz4Emtra0T4vKCykMiK78EkxJJyFysQYMG7TeRhLAiDUCMnZfE6z4OgUpAAP690WpcdFStUDFsdiI21ovL9n9KmJDRveDYN1GOgta32B/Rac2uXbtcKfzY6LkX8oqApGfd1DIUYX4Ohb12R2JCmL87UXhoHw6RjFnsyjRW/x2mjvLZ11577dS8AurG5RCIiwDLXajvxDXMDEWebv/+/UsyKNhmWT8hmJAVm7Wyu/ned5ct+xyKFt2GcgWxyxzGBcg97xBIEgGoob1HjRp1ldpHHHWUDHvKKaf8T1C5DLZZNqn3pJNOet1EEtKShJSXAUmC49p2CKSBAKKSBtHOYSIJJ02aVLa6eFkmnDVr1pO6klCeC9etWzctDZBcHw6BJBF45plnZhnyQqesGxQ0zrJMOHHiRK/IqXr+izvRxx57bH7cd9zzDoG8IbB27Vpeuqrl95b8c/bZZ79Ubl5lmRDS7DgspL82EcGsrMZitnkD1Y3HIRAHAdKxydGMnobjx48fi9Nn17NLliz5M0rDONn1ajVnvGutorLWBNxLDgFDBOQV2SZ8gKrbn+9pGD0WWUV6zA51B4hrlqUIV6MMDPFwrzsEUkcAQdsXy07DXHN+/pClHCdMnLhRe+C8nEPW89eVhnRSag/AvegQyBgBXiBjIgVZ48f4+niTQchsYpwLSy5GzBhb171DIBQBhHDyrk6jKhO8rjyso9Ca/0hr2uAXx3HF8o9//GNnJQ1bCff33CHw+OOPzw06jsX53fx58x4Jm1goE1511VV3UxyzoThRAsrzNU8//fRs/p+XhYYNyP3dIZAXBBCqduF7ZK93dTz5Zvbs2T81ng+ixwfKWotSN1Z15LDfCQZmGcTREO+9jQfkGnAIpICAqFTnlTcMo3HVIyCrrvEduCZ+BcHjXc/W0ydUMiHy++AFF1zwjK4klLsI74tDKkfJXfZhA3R/dwhkgQAc9GdLmteRhHz3kg9/+HHcieHdcW/0gVHlhB899BBvttHyF8qdYcqUKeuRbR9aWMposO5lh4AlBKD9rTel+ZUrV/6BleEgcFUyTlflYXVwUUS1EOnWHPco+dclwVELciIuT7kDgQWfszJh10ghEGANUP6APq1HZImrIEroPQ7d49kOa14B6LTeBRiz58x53HRnwO07f2+6wmBA71yJewGawHz/yMkKJu9ctmzZn5i2797PPwKLFy9mJJe37tSwUOz4fJujvuWWW/7WlNbBLz+xOSavLUQOnKUSfNBhNOx3fB/Gma4CqnEGKS8hwabQH2FAX5BBBKokxoJ4N9y6T+UigE24Fg5wRnJ5xyOxAXeg7P99CDGbbDpzGCJJn93um1D7ikDj3j0gq1at8jIvrH4wuEFwPK423CE6IK0+E2dgYLouiyp07PlgtBcF8F1nVPn/uXPnPhqnbfdssRCQWhlv/lLpUK4/iR8b9A2wPWirqHj/OrajEyEmNwVaRaGpJXMRj1D/jAw0dHeQoeMsP3T0qZjYCyrzKcB7Ow9ViPb2dk91dp/KRgBnwUkiEqVEYknJiM3+j+OeF+mOk3RmwoTgk9sSWQEcMmvADFMsiOpOiOo5UQYJEBv85z7VD8OxQA25F2rIpCjtuWcqBwHQRj2k1vXiWBLIjNCM/p0beNRZC7rs5huU9KZ+9/Q70iSNhVH7jPUcVIF6SJreYgcykoaCkcv2j35qsJNdCYDfKSf9UFL8QZxTZ8SahHu44hCAU7352muv/aYUDqQX/0bNm4ojnhe17x6UfZI/oA6H+t+NFgLMscDPGFF3CfUgLXyP3cbC64j5C7gb/lSVuLI/fvNcih3r4sQnaoSSezltBLAhn0PJV45uuKGzgG+5cYEeGd9s7IZbsWLFxxKfO9ObmHUvdxwd3ZnvEjC/zi79f7xjL2hHI3PCSto/8Um6DgqJAI5MtYr7ohtDkcHAIJcHTYy+cGHUM9LwmLYEQRLL3qENNPx9XzZhQpniRJVTHYS0hELSXSh2Je8izFtvvfVGXdeG9iTdi4VDQNIPtKRaGOq+KCWb0KQ6yvkTBXNqM6DU8MAXt6QCGnaNWnHw1A5uVUPZRM5W19ghDT2VlH5JMilMvcNTmZjrpOIQoMGO/kO6DMBoHw2aIDUr1eWhamBhPkH/2TMxg4x/4HSW8nc4DN9lIg3l7kTHO9uT50HVL1hxVOEmlBoCUdPm6MqQElPnaCUZURiHUptfL+jefeirUQevMmSc3YRtSGknGTG9mbieKhkB0hN++uCnDj8lDnz4BYf6GTAO7aqGRvBD141NqWJqWvpC2UXuTHXgrjOHABAQsczGZ0HEiT6WGaDQuU+xIcrZhu0g3MxAcR3nGgEZ+iZcZMZ+QdIu7BdnZjppRqyI8123WM64vkORvZ/pXFznlY8A79/kLNUqggZHqc4rrrjiB5mjBl2YDlCjHUUyLF0RmU/IDaDiEWC4G2lW1xCjngVFceDsMYNlaLEqDTUPt14gtohPzX5SbgQViQAja6TQ0KFT1S0Bur8zNyD5LaW6OwxBEelSuZmbG0hlIWAa+6xKwdwJDEtRNJ40FJkTlbX6bjaZI4Aomr8zVUOV6JibM5+QfwCMZpeRB7piXt1lYC39UO4m6QZUWASE9V07Y15VQ0nnoiRi/vAQEeRGB145WVHD/8T8zdKNqGgIwCnfJGvn6h6VlBA2BoIHhsBljotMLVInKyWiRmKkVzsEwQBPZT4xN4DCIyCCSoySdSUNF8KVBusTi6ZacVmwHdYMKTwVuAlkggAEQ42gH2v0WJhEctOScarKQEYslweWycq6TguDgKAb4+ORYoz5MidfiCQDDHIwz3S66qhffWV0A8zB7y/M6ruBZo6A6g+MexwKivYiPeNs2SgjbjKfYJQBBFmjdA/FZGZKxNTytcpMkEWDMouWjwJ6Dp4BofZHVsyQLIcCy+UYG0cin7X+vCznpN23rJRmYyciqDhgP4kFHqE9IIMXlUzt2LVTDbot1KvwFX9JFOZlUHMmRbjoKvOXxzShPwoA6bdWr18ozMIgC7+fjQgF1TwsAE4VA1FNucu6xg0hbk3LVAecQWdgutOl9CHh8pp0liVMcyjIc+0rIq6snQNHNze/KfIO05yK3b5sBXirjIjI9fvTrLbmd7sIJqyzi1SxW8NGNZO4qOuUpmWbl6+gQNhKdQy6xx9fsm7ZCm2FWjFR0MmKn4a7LIFOq5yAcMzKOw+8bxDXXxRqAVIYLFS1OrV6NXGiQQ3q4diku+/o6KhhbVFBG1qXeiqbR9daV1RWD6RWb5l3aLI7+YDyqm/TF5TUIov7BLqVzmPIEiuDJ9VnkduFMY7Gi254iQybxKblZ0Bb9EWm5nEqqCxGYpNJumFMqI76NXcrlZmCzMFRfyclYlKXj8q7N9QdVhQGShquwraPjfF7co2l1iLcBdbnxDKYYJZvyfWxRVc8flTsRoud8oPqTmm6a8lFFpWXrS6yWtZRbgq8o5GbidWOKqwxJLme7JeGWJ9VtnHDVQnSCNOlftqiJzGHClsZZTo4wF+UBCOK66iG2UJOxK12uwMv4n0GtoZQ2HaEQaYbdqiM/VlbE2IVeGkFVTUrEyaUG7q/ILWtMeemHZaf42DkHXCq2mKqSpCxyTjCGms0Z/VsI1UdF0weHVJxP2BJGXpWxo7eSvCTdMQLA5BnibVFQ2yHvmCeMU3HWJj3hQppVG7Ov/PJ3cwkxI0Vmf1WPvRzXERh5ApfzpOXrmblGO8JDHEZbDcmEUm12hj6Q9FMJJ8vPpl3ozzCgWH9uy6l1R5oUV7EGaG/PMSrKoXpzsb3aRrXDfoWZuluLgkRLZMraEXSc5fbByX8fj9PA6RlUW60UpugtiLPW3EKPdMnLIOxZVummpPiC+yEf/Ff4ZAfkif8UhuLqLxtnGZSTiLqOItVC66UrFgga2dNW+DS2KFuWIxQsdW2rXaERtJNLcXG+322L48mUfqylY5Ujk5Ah7lb3yi4WHsGAIzyZ1zYVDOY0BnHYSyZUO64K1euvNTaZC02hHn9XGVC/P9Zi80bNyXvgoAL4TuKJGSi9tOCCUPPh8yIlwm5tmhClaCkO9Kf8WQroQHsmNNkMVZTddR/WGd7DCqOWuEbu+7nqTbxJ+3wuDhrCeJ8RsUKQQStcd5P61lalJW1ZW6od4lmmBOc6yXCBUsu7pTz1jXM8H1eGhrnKu208Mq0H1g1xwviT8JY01XFLUrMKQhngrCQZopJT50HSMJf5HWwZESe6aJuhLIqmpSgNqWgaLMD2lFLXvHKdFy8k9AvEXV3u6CDO5mcWR2UvJlO1ELnRWLCnqbLLHVpkeQZUmbd2NSIVCOMSBAv/PpbIKHyTZARk5CI6kKw/aIH5wYw4epEFybhxmVpelXVTEICVsIGnPBSvNc8s9fVCztsLobKjDxziFC6VOZls5O8G2aizpW3IwVpPzbXXJ4BoYKOizou9xwQ4I4lraZJqCYKMzIt6p9hJeOFkYX5FJ0J6faR9wMmvL40zG13RhhN0halLKz7Ef3REiQCqqhQiRbhfJJqNrgmNL2KyoTAd6CIpinJL7Up/dRNNquSKLprm7v3AODIJCJrVIOPqqLC1L8RwcYLEfGR6xjCojEhy4FQ9ZRVCtSzXxKSkG0iEuYBx4CWWJq5XWoIlO0dU7WkSqmI/v4NRDPX0hSsN6NeVc4x581Zr04YOM4X65ea9GMsKFTewdaBr/YG/dkXSTGjqspQTYX6tAALOjBP+OddEhIvpK1dTPzExmbV/xu09nIDzWOsb55ox3gs/nzENNQa9kE1irlmzOY2noSFBvxMiITjn1po1rgJFsilu4H5nZL5kl4jddOU+YCFKtJrjHqKDch4RLoV1BjPJCWiz7/oGXB4FyMdyzL6Bgue+vnRZ9zowOY0O8WlKOmK1mxx/YFaGjIt6edtkhWfEZ/lAgf1zYO+KB5lPbYwLE1Gqj1TpkxZzxQiFpzNAh+Egl2BAOl75V2Oad+RgHmPZoC7GuOZltRTpZ8oyuSKb2VBhJREPK/Jc0fSErGca4P9kxDAFB9n/csssEiLASH1BzEOVFRRS1XqBRnQGPmUdpHhLNY3930ywsYfc5gRQ3rqKsdCCUEVDUxZ6ExtjL+GAe1w21yj3POXmrHFv47ynMnSk7KUSVhGRu4JuFIGyGpeKFF4m18qSvUoAzXJY0iYyh/FuO6AyjgTxNIIovbq7OT1w4x4+tYo7TDub2D8j/kNLFlgqqqfLEVZ+NL0CgGkblBImviYgvTpBQse3LVz52j2hcVLusvA9js7yYMln07s4Js+9alPLZ84YcL/jh8//o1m1GKdNGnSm3V1dZQuqX8g5SaBoEft2rVr1HPPPXfB/ffffxUYcQCh8w8mayyZF7pi+fKPz5kz55epA5Vgh9lQaIITYtO8H/Guu+5a9JWvfOXW9/iwpheZQhKR/HcWv/NPHcHLB5uGDds9efLk11rGjWs9/fTT18Hyu/XkyZNfHThw4EFKnb59+7b369evrbGx8XhU6FjDBbU5G44cOdIP75zQ1tZWD+YaDKY7A5kqs9/auXPkju3bR7e2to4XTOftWbL9PGAl140YMM70huuvv2vkyJF7o2JQlOcqkgkl+KxCtmjRortxdpgqmTFPC1NGWqpD9MQppee4ceM2N48evZ1My9+NHTv2zSNHj9YeamtrOHjw4CD+Dsx65K233hoN5ut39NixWjIZ5h6UO5cbKVduPSQ2sLy+tHTp0mtmzpz5K/r+hg4dmonGkCe6KeRYcL65jAd5DD4zg4KOoYgSwNaPTv9pv6POleslS2EI7aaiBUYhGSvuoOHTGgGV5maVEbnoYT7BoEBv97v3cLOJn8KADIa4hVW2466xe74gCLCWDXxcdwpmTDRNKm1JUsT+VObjusCtM6UgpOSGaYoAfYtqxI3c1W3u7ralRaW1JxjQq2oHg1FlXMZpSpjV+D5N9OKeCa/MocqERZQseR+zKvl4y5WoKVSNpOfm7EcAkrGFZS5UNdUxZI2VAGyfcYnlRO6kJiLXIE5JfEe5VYAAiONEGAa+BIlCn5yVK76r2fgjGZB1XmhwEfc+VgEluSkaIwDr3HAEh39KvQdPElTeVb4sx+eXeoyjpasB0s7zZbqPQ0ALAVjsfg/xil/3M2Q1S7ggI5E0tDChV0i9CVEqnmstinupOhFAjGV/GBLOoEGh2s+OPonnBasDl58guXhW0cpHZk3NLgrBYAWQ0HvJU08+ecnq1atnifCwbnhmFfBsMKWyrwaF2EHirb3kwx9+7IzTT39x/vz5P0V8a3sSfVd6m44JLawwJGTD5s2bW+67777P/jdiNV9ct+4sBEV3KwylBpFnETiuE8TuZzwYV96aOHHixvnz5j0ye/bsJ5D9sampqel3FiCs6iYcEyaw/DTq/Gbduulv7djRfO+9935u3bp1M5RuchU8HRZEzvPdJz/5yR9MAPOdOX36ixMmTNiVAGRV3aRjwhSWn4m8b7zxRvPTTz8955VXXpm2d+/eptYtW1rWPP/8eeWYU0dysa2wNK1y0+VNv0OHDNmH/MZtSKf69bRp016cOnXqq8jMaEPmRmByZArQVUUXjgkzWmaY7Os2btw4/sCBA0NEQu2FVGV/sXr1RRhSUuviMRMqUz/Y0tKyacaMGWuYEoX0oLeRp7cHP+9mBEdVd5vUYlc1qLYmzwK6e/bsGczz5e7du0e2Hz5cv2/v3ka2v3//fu8Cm/r6+kMUgMq/ezU0NLTV1de3Dx82bNewYcP24OcAGOyArXG5dhwCDgGHgEPAIeAQcAg4BBwCDgGHgEPAIeAQsIPA/wGiCtF4gmsIPAAAAABJRU5ErkJggg==;" vertex="1" parent="8">
                    <mxGeometry x="520" y="256" width="225" height="225" as="geometry"/>
                </mxCell>
                <mxCell id="17" value="&lt;font style=&quot;font-size: 36px;&quot;&gt;Reaction &lt;br&gt;Time&lt;/font&gt;" style="text;html=1;align=center;verticalAlign=middle;resizable=0;points=[];autosize=1;strokeColor=none;fillColor=none;fontSize=24;" vertex="1" parent="8">
                    <mxGeometry x="305" y="308" width="160" height="104" as="geometry"/>
                </mxCell>
            </root>
        </mxGraphModel>
    </diagram>
</mxfile>